<svg width="97" height="97" viewBox="0 0 97 97" fill="none" xmlns="http://www.w3.org/2000/svg">
<circle cx="48.5" cy="48.5" r="47" stroke="white" stroke-width="3"/>
<path d="M72.6011 49.6268H68.6624L68.8705 45.2652C68.894 44.7709 68.7137 44.2884 68.3719 43.9304C68.03 43.5724 67.5559 43.3698 67.0606 43.3698H27.199C26.7034 43.3698 26.2296 43.5724 25.8877 43.9304C25.5458 44.2887 25.3656 44.7709 25.3891 45.2652L26.1936 62.1193C26.3923 66.2843 28.9469 69.7888 32.5362 71.3809H24.812C23.8115 71.3809 23 72.1912 23 73.1904C23 74.1896 23.8115 74.9999 24.812 74.9999H69.7031C70.7036 74.9999 71.5151 74.1896 71.5151 73.1904C71.5151 72.1912 70.7036 71.3809 69.7031 71.3809H61.7237C64.6331 70.0901 66.8607 67.5425 67.7063 64.4048H72.6011C76.6807 64.4048 80 61.09 80 57.0158C80 52.9416 76.6807 49.6268 72.6011 49.6268ZM57.3737 68.6816H36.8862C33.1003 68.6816 29.9937 65.7233 29.8134 61.9468L29.0995 46.9882H65.1601L64.4465 61.9468C64.2662 65.7233 61.1596 68.6816 57.3737 68.6816ZM72.6011 60.7857H68.13L68.49 53.242C68.5168 53.2432 68.5434 53.2459 68.5706 53.2459H72.6011C74.6827 53.2459 76.376 54.9369 76.376 57.0158C76.376 59.0947 74.6827 60.7857 72.6011 60.7857Z" fill="white"/>
<path d="M41.8054 40.4036C42.0947 40.5743 42.4121 40.6557 42.7256 40.6557C43.3453 40.6557 43.949 40.3379 44.2873 39.7667C44.7967 38.9062 44.511 37.7967 43.6494 37.2882C42.642 36.6934 41.9456 35.5963 41.739 34.2783C41.524 32.9061 41.883 31.5393 42.6987 30.6227C42.706 30.6146 42.7132 30.6064 42.7202 30.598C42.9174 30.3682 43.1146 30.1423 43.31 29.9182C44.9861 27.9959 46.7195 26.0087 47.2172 23.1165C47.387 22.1315 46.7247 21.1956 45.7387 21.0264C44.7523 20.8572 43.8152 21.518 43.6458 22.503C43.32 24.3958 42.0488 25.8534 40.5772 27.5411C40.3788 27.7685 40.1789 27.998 39.9789 28.2308C38.4596 29.9463 37.7792 32.4145 38.1588 34.8372C38.5327 37.2276 39.8621 39.2564 41.8054 40.4036Z" fill="white"/>
<path d="M47.4289 36.3174C48.0271 37.8558 49.0944 39.2649 50.4344 40.2848C50.7623 40.5345 51.1483 40.6555 51.5315 40.6555C52.0775 40.6555 52.6175 40.41 52.9739 39.9428C53.5806 39.1481 53.4272 38.0126 52.6311 37.4068C51.8266 36.7942 51.1616 35.9199 50.807 35.0076C50.1007 33.1911 50.7699 31.381 53.0451 28.9547C54.6581 27.2344 55.6891 25.2083 56.0265 23.0948C56.1838 22.108 55.5107 21.1803 54.5222 21.0229C53.5341 20.8654 52.6051 21.538 52.4475 22.5251C52.2213 23.9423 51.5324 25.2732 50.3999 26.481C49.2116 27.748 45.5961 31.6039 47.4289 36.3174Z" fill="white"/>
</svg>
