<svg width="97" height="97" viewBox="0 0 97 97" fill="none" xmlns="http://www.w3.org/2000/svg">
<circle cx="48.5" cy="48.5" r="46.5" stroke="#04AEEE" stroke-width="4"/>
<path d="M67.9091 41.8921C67.75 41.5518 67.4073 41.3334 67.0298 41.3334H55.5283L66.8793 23.4839C67.0686 23.1862 67.0802 22.8092 66.9095 22.5008C66.7386 22.1914 66.4124 22 66.0591 22H50.5298C50.1619 22 49.8261 22.2069 49.6611 22.5346L35.1023 51.5346C34.9519 51.8334 34.9684 52.1891 35.145 52.4742C35.3227 52.7593 35.6342 52.9333 35.971 52.9333H45.9515L35.0761 78.6583C34.8907 79.0982 35.0557 79.6085 35.4643 79.8579C35.6215 79.9537 35.7962 80 35.97 80C36.2485 80 36.5232 79.8811 36.7135 79.6569L67.7723 42.9234C68.0158 42.6355 68.0682 42.2333 67.9091 41.8921Z" fill="#04AEEE"/>
</svg>
