<svg width="97" height="97" viewBox="0 0 97 97" fill="none" xmlns="http://www.w3.org/2000/svg">
<path d="M72.0356 46.1354H62.904C61.0168 46.134 59.1615 46.6878 57.5195 47.7427C56.1219 48.6417 54.9128 49.874 53.976 51.3545C53.352 51.231 52.7197 51.1693 52.0862 51.1698H42.9464C42.3129 51.1691 41.6805 51.231 41.0566 51.3545C40.12 49.8738 38.9109 48.6415 37.5131 47.7427C35.8711 46.6878 34.0158 46.134 32.1286 46.1354H22.997C16.9291 46.1506 12.0134 51.7249 12 58.6059V65.6355C12.0045 66.3717 12.5319 66.9657 13.1812 66.9657H31.9168V70.6607C31.9168 71.4004 32.4457 72.0001 33.098 72.0001H61.902C62.5543 72.0001 63.0832 71.4004 63.0832 70.6607V66.9657H81.8188C82.4711 66.9657 83 66.366 83 65.6263V58.6059C82.9866 51.7392 78.0907 46.1709 72.0356 46.1354ZM32.039 62.4394V62.7257C32.039 62.8551 32.039 62.9752 32.039 63.1045V63.6403V64.2869H14.3623V58.6059C14.3758 53.2043 18.2337 48.8295 22.997 48.8142H32.1286C33.6073 48.8124 35.0612 49.2452 36.3482 50.0705C37.2111 50.6238 37.9851 51.3393 38.6372 52.1859C34.9616 53.995 32.4371 57.9181 32.039 62.4394ZM60.6964 63.6403V69.3305H34.3117V63.5386C34.3117 63.434 34.3117 63.3324 34.3117 63.2338C34.3117 63.0738 34.3117 62.9135 34.3117 62.7535V62.5133C34.3117 62.4209 34.3117 62.3285 34.3117 62.2362V61.9406V61.8482V61.7466V61.5434L34.3606 61.3217L34.4421 60.9891L34.4991 60.7674C35.6692 56.7457 38.9757 54.0227 42.7102 54.0056L42.9464 53.8578H52.0862C56.4233 53.8759 60.081 57.5262 60.6475 62.4024C60.6475 62.6057 60.6475 62.8089 60.6964 63.0121C60.6964 63.2216 60.6964 63.4308 60.6964 63.6403ZM80.6703 64.2961H63.075V63.4925C63.075 63.3908 63.075 63.2892 63.075 63.1876C63.075 63.083 63.075 62.9782 63.075 62.8735C63.075 62.7257 63.075 62.5687 63.075 62.4209V62.2824V62.1253V61.839V61.7928V61.6819V61.5803V61.5156V61.3956V61.2662V61.2016V61.1184V61.0353V60.9522V60.7489V60.6566V60.5365V60.4164L63.018 60.1855V60.0931V60.01V59.9453V59.8529V59.7328L62.904 59.3726C61.8426 56.173 59.6778 53.6015 56.9086 52.2505C57.3985 51.4279 57.9944 50.6931 58.6762 50.0705C59.9633 49.2452 61.4171 48.8124 62.8958 48.8142H72.0356C76.7987 48.8295 80.6568 53.2043 80.6703 58.6059V64.2961Z" fill="#04AEEE"/>
<path d="M33.4401 27.7805C31.8836 26.0051 29.7665 25.0074 27.5588 25.0093C22.9655 25.0047 19.2385 29.2234 19.2344 34.4324C19.2303 39.6411 22.9506 43.8674 27.5441 43.8721C32.1376 43.8767 35.8644 39.658 35.8684 34.449C35.8703 31.9491 34.997 29.5506 33.4401 27.7805ZM31.7702 39.2072C29.4451 41.8447 25.675 41.8456 23.3489 39.209C21.0231 36.5724 21.0222 32.2971 23.3473 29.6594C25.6724 27.0219 29.4425 27.021 31.7686 29.6575C32.8854 30.9235 33.513 32.6408 33.5134 34.4314C33.5157 36.223 32.8884 37.9416 31.7702 39.2072Z" fill="#04AEEE"/>
<path d="M67.4806 25C62.8873 24.9954 59.1603 29.2141 59.1562 34.4231C59.1542 36.9229 60.0276 39.3217 61.5845 41.0916C63.141 42.867 65.2581 43.8646 67.4659 43.8628C72.0592 43.8674 75.7862 39.6487 75.7902 34.4397C75.7943 29.2307 72.0739 25.0046 67.4806 25ZM71.6853 39.2032C69.3602 41.8407 65.5901 41.8416 63.264 39.205C62.1472 37.9391 61.5196 36.2218 61.5192 34.4312C61.5169 32.6396 62.1442 30.9209 63.2624 29.6554C65.5874 27.0179 69.3576 27.017 71.6837 29.6536C74.0095 32.2902 74.0103 36.5657 71.6853 39.2032Z" fill="#04AEEE"/>
<path d="M53.3854 32.7826C51.8271 31.0214 49.7163 30.0333 47.5163 30.0344C45.3085 30.0326 43.1914 31.0302 41.6349 32.8056C38.3957 36.4916 38.4049 42.4573 41.6553 46.1306C44.9057 49.8038 50.1666 49.7935 53.4058 46.1075C56.645 42.4215 56.6359 36.4558 53.3854 32.7826ZM47.5147 46.2257C44.2259 46.2246 41.5608 43.2005 41.5616 39.4714C41.5624 35.7422 44.2294 32.7197 47.5179 32.7207C49.097 32.7211 50.6113 33.4329 51.7277 34.6993C52.846 35.9648 53.4732 37.6835 53.471 39.475C53.47 43.2044 50.8032 46.2267 47.5147 46.2257Z" fill="#04AEEE"/>
<circle cx="48.5" cy="48.5" r="46.5" stroke="#04AEEE" stroke-width="4"/>
</svg>
