<svg xmlns="http://www.w3.org/2000/svg" style="display: none;">
    <symbol id="icon-ok" viewBox="0 0 97 97" fill="none" xmlns="http://www.w3.org/2000/svg">
    <circle cx="48.5" cy="48.5" r="46.5" stroke="white" stroke-width="4"/>
    <path d="M75.9703 34.0739L70.9691 29.0369C70.2834 28.3457 69.4494 28 68.4691 28C67.4878 28 66.6538 28.3457 65.9681 29.0369L41.8439 53.3704L31.0322 42.4443C30.3457 41.7528 29.5122 41.4075 28.5318 41.4075C27.5509 41.4075 26.7174 41.7528 26.0309 42.4443L21.0297 47.4814C20.3431 48.1727 20 49.0124 20 50.0003C20 50.9873 20.3431 51.8278 21.0297 52.519L34.3417 65.926L39.3433 70.963C40.0294 71.6547 40.8631 72 41.8439 72C42.8242 72 43.6579 71.6538 44.3445 70.963L49.3459 65.926L75.9703 39.1112C76.6562 38.4198 77 37.5802 77 36.5924C77.0005 35.605 76.6562 34.7653 75.9703 34.0739Z" fill="currentColor"/>
    </symbol>
</svg>